<?xml version="1.0" encoding="utf-8"?>
<svg width="512" height="512" viewBox="0 0 24 24" fill="none" xmlns="http://www.w3.org/2000/svg" xmlns:bx="https://boxy-svg.com">
  <defs>
    <bx:export>
      <bx:file format="png" width="512" height="512"/>
    </bx:export>
  </defs>
  <path d="M 0.912 7.288 C 0.912 4.991 2.774 3.13 5.07 3.13 L 18.93 3.13 C 21.226 3.13 23.088 4.991 23.088 7.288 L 23.088 16.712 C 23.088 19.009 21.226 20.87 18.93 20.87 L 5.07 20.87 C 2.774 20.87 0.912 19.009 0.912 16.712 L 0.912 7.288 Z" style="fill: rgb(33, 33, 33);"/>
  <path d="M 17.084 13.69 C 17.377 13.194 17.544 12.616 17.544 12 C 17.544 11.384 17.377 10.806 17.084 10.31 L 18.409 8.984 C 18.734 8.66 18.734 8.133 18.409 7.809 C 18.085 7.484 17.557 7.484 17.234 7.809 L 15.907 9.134 C 15.412 8.841 14.834 8.674 14.218 8.674 C 13.601 8.674 13.023 8.841 12.528 9.134 L 11.202 7.809 C 10.878 7.484 10.35 7.484 10.026 7.809 C 9.701 8.133 9.701 8.66 10.026 8.984 L 11.351 10.31 C 11.059 10.806 10.891 11.384 10.891 12 C 10.891 12.616 11.059 13.194 11.351 13.69 L 10.026 15.016 C 9.701 15.34 9.701 15.867 10.026 16.191 C 10.35 16.516 10.878 16.516 11.202 16.191 L 12.528 14.866 C 13.023 15.159 13.601 15.326 14.218 15.326 C 14.834 15.326 15.412 15.159 15.907 14.866 L 17.234 16.191 C 17.557 16.516 18.085 16.516 18.409 16.191 C 18.734 15.867 18.734 15.34 18.409 15.016 L 17.084 13.69 Z M 14.218 13.663 C 13.298 13.663 12.554 12.919 12.554 12 C 12.554 11.081 13.298 10.337 14.218 10.337 C 15.137 10.337 15.881 11.081 15.881 12 C 15.881 12.919 15.137 13.663 14.218 13.663 Z" style="fill: rgb(255, 255, 255);"/>
  <path d="M 7.01 7.288 C 7.01 6.829 6.638 6.456 6.179 6.456 C 5.72 6.456 5.347 6.829 5.347 7.288 L 5.347 16.712 C 5.347 17.171 5.72 17.544 6.179 17.544 C 6.638 17.544 7.01 17.171 7.01 16.712 L 7.01 7.288 Z" style="fill: rgb(255, 255, 255);"/>
  <path d="M 0.912 7.288 C 0.912 4.991 2.774 3.13 5.07 3.13 L 18.93 3.13 C 21.226 3.13 23.088 4.991 23.088 7.288 L 23.088 16.712 C 23.088 19.009 21.226 20.87 18.93 20.87 L 5.07 20.87 C 2.774 20.87 0.912 19.009 0.912 16.712 L 0.912 7.288 Z M 5.07 4.793 C 3.692 4.793 2.575 5.909 2.575 7.288 L 2.575 16.712 C 2.575 18.091 3.692 19.207 5.07 19.207 L 18.93 19.207 C 20.308 19.207 21.425 18.091 21.425 16.712 L 21.425 7.288 C 21.425 5.909 20.308 4.793 18.93 4.793 L 5.07 4.793 Z" style="fill: rgb(255, 255, 255);"/>
</svg>